<svg width="0" height="0" class="hidden">
  <symbol fill="none" xmlns="http://www.w3.org/2000/svg" viewBox="0 0 115 42" id="bbb">
    <g id="bbb">
      <path id="Vector" d="M45.5827 13.7822L42.6328 21.1641H44.3089L44.9123 19.5162H47.7057L48.3091 21.1641H49.9851L47.08 13.7822H45.5827ZM45.4151 18.1165L45.9123 16.779C45.9905 16.5589 46.0687 16.3501 46.1358 16.1469C46.2028 15.9437 46.2587 15.7688 46.2978 15.6277C46.3313 15.7688 46.3872 15.9381 46.4542 16.1469C46.5213 16.3557 46.5995 16.5589 46.6833 16.779L47.1749 18.1165H45.4151Z" fill="white"></path>
      <path id="Vector_2" d="M0.84375 5.67786V36.3228C0.84375 37.6026 1.34702 38.8299 2.24283 39.7349C3.13865 40.6398 4.35364 41.1482 5.62052 41.1482H37.9908V0.852539H5.62052C4.35364 0.852539 3.13865 1.36092 2.24283 2.26584C1.34702 3.17076 0.84375 4.3981 0.84375 5.67786ZM19.3474 37.9539H15.6433V29.9117H19.3977C20.7442 29.9117 21.9789 30.5325 21.9789 32.0506C21.9793 32.402 21.8829 32.7465 21.7003 33.0456C21.5177 33.3446 21.2563 33.5864 20.9453 33.7437C21.7889 34.1218 22.2135 34.3758 22.3699 35.4368C22.6213 37.2484 20.9397 37.9539 19.3474 37.9539ZM30.6944 37.0227H30.8117L31.0296 37.587V37.6322V37.683V37.7281C31.0296 37.7281 31.0296 37.7281 31.0296 37.762C31.0287 37.7507 31.0287 37.7394 31.0296 37.7281V37.683C31.0275 37.6661 31.0275 37.649 31.0296 37.6322V37.587L31.2475 37.0227H31.3648V37.9313H31.3983V37.2145V37.2484C31.395 37.2614 31.395 37.275 31.3983 37.2879V37.3274V37.3669L31.1469 37.9313L30.9067 37.3669V37.3274V37.2879C30.9074 37.2747 30.9074 37.2616 30.9067 37.2484V37.2145V37.9313H30.8061L30.6944 37.0227ZM30.4206 37.6378C30.4145 37.6195 30.4027 37.6037 30.3871 37.5927L30.3144 37.5475L30.2083 37.5024L30.0854 37.4516C30.0558 37.4354 30.0278 37.4165 30.0016 37.3951C29.9807 37.3751 29.9647 37.3503 29.955 37.3228C29.9453 37.2954 29.9421 37.266 29.9457 37.2371C29.9399 37.2054 29.9399 37.1729 29.9457 37.1412C29.9614 37.113 29.9823 37.0881 30.0072 37.0678C30.0332 37.0461 30.0638 37.0307 30.0966 37.0227C30.1355 37.0172 30.175 37.0172 30.2139 37.0227C30.2691 37.0224 30.324 37.0319 30.3759 37.0509C30.4197 37.0678 30.461 37.0906 30.4988 37.1186L30.4318 37.1976C30.4009 37.1729 30.3671 37.152 30.3312 37.1355C30.2905 37.1287 30.249 37.1287 30.2083 37.1355H30.1245H30.0686C30.0573 37.1492 30.0479 37.1644 30.0407 37.1807C30.0381 37.1975 30.0381 37.2146 30.0407 37.2315C30.0377 37.2483 30.0377 37.2655 30.0407 37.2823C30.0468 37.3005 30.0586 37.3164 30.0742 37.3274C30.0947 37.345 30.1172 37.3602 30.1413 37.3726L30.253 37.4177L30.3815 37.4685C30.4134 37.4831 30.4419 37.5042 30.4653 37.5306C30.4854 37.5514 30.5006 37.5765 30.51 37.604C30.5162 37.6318 30.5162 37.6607 30.51 37.6886C30.5163 37.7222 30.5163 37.7566 30.51 37.7902C30.496 37.8227 30.475 37.8516 30.4485 37.8748C30.42 37.8972 30.3879 37.9144 30.3536 37.9256C30.3091 37.9318 30.264 37.9318 30.2195 37.9256C30.1601 37.9259 30.1013 37.9144 30.0463 37.8918C29.995 37.8731 29.949 37.8421 29.9122 37.8015L29.9792 37.7281C30.0128 37.7595 30.0504 37.786 30.091 37.8071C30.1353 37.815 30.1807 37.815 30.2251 37.8071C30.2765 37.8113 30.3279 37.7973 30.3703 37.7676C30.3888 37.7543 30.4036 37.7364 30.4134 37.7157C30.4232 37.6949 30.4276 37.672 30.4262 37.6491C30.4244 37.6453 30.4226 37.6415 30.4206 37.6378ZM29.4206 32.0224C29.4209 32.373 29.325 32.7169 29.1436 33.0158C28.9621 33.3147 28.7021 33.5569 28.3926 33.7155C29.2362 34.0936 29.6608 34.3476 29.8116 35.4086C30.0854 37.2597 28.3982 37.9595 26.8115 37.9595H23.0851V29.9117H26.845C28.1914 29.9117 29.4206 30.5043 29.4206 32.0224ZM16.2523 6.06162L18.9955 2.25781L19.4089 2.55692C19.2907 2.72421 19.2083 2.91446 19.1667 3.11562C19.1251 3.31678 19.1253 3.52448 19.1673 3.72555C19.2094 3.92662 19.2922 4.11669 19.4108 4.28371C19.5293 4.45074 19.6808 4.59108 19.8558 4.69586L24.6829 8.23443C25.1651 8.6042 25.5704 9.06642 25.8755 9.59462C26.1807 10.1228 26.3797 10.7067 26.4612 11.3127C26.5426 11.9187 26.505 12.5349 26.3503 13.1262C26.1957 13.7175 25.9272 14.2722 25.56 14.7585L22.4481 19.1887L22.0682 18.9009C22.7331 18.0149 22.6269 16.2936 21.6995 15.6163L17.1909 12.2696C15.431 10.9377 14.9673 7.90145 16.2523 6.07291V6.06162ZM14.4031 15.526L16.1685 13.0767L16.6434 13.4209C16.5277 13.6004 16.4853 13.8181 16.5248 14.0284C16.5644 14.2388 16.6829 14.4256 16.8557 14.5497L20.1519 16.9764C20.4924 17.228 20.7784 17.5472 20.9922 17.9145C21.2061 18.2817 21.3435 18.6893 21.3958 19.1121C21.4481 19.5349 21.4143 19.9641 21.2965 20.3732C21.1787 20.7824 20.9793 21.1629 20.7106 21.4914L19.0346 23.8052L18.5597 23.4497C18.8279 23.0208 18.7832 22.6144 18.2245 22.2081L14.9562 19.8265C13.7941 18.9348 13.5203 16.7563 14.4031 15.526ZM12.2409 24.6349H25.7947L26.2696 26.2715H22.6325L21.99 28.4951H16.0456L15.3975 26.2715H11.7661L12.2409 24.6349ZM8.16254 29.9117H11.9225C13.2689 29.9117 14.498 30.5325 14.498 32.0506C14.4984 32.4012 14.4025 32.7451 14.221 33.044C14.0396 33.3429 13.7796 33.5851 13.4701 33.7437C14.3137 34.1218 14.7327 34.3758 14.8891 35.4368C15.1629 37.2879 13.4756 37.9877 11.8834 37.9877H8.16254V29.9117Z" fill="white"></path>
      <path id="Vector_3" d="M53.634 21.2769C54.5615 21.2769 56.1761 20.7633 56.6398 19.8434L55.5224 18.8671C55.2885 19.1428 55.0025 19.3687 54.6811 19.5315C54.3598 19.6943 54.0095 19.7908 53.6508 19.8152C53.3849 19.8191 53.1221 19.7571 52.8854 19.6346C52.6662 19.5113 52.4756 19.342 52.3267 19.138C52.1598 18.9145 52.0348 18.662 51.958 18.393C51.8816 18.1002 51.844 17.7984 51.8462 17.4957C51.8389 17.1703 51.8766 16.8455 51.958 16.5306C52.0348 16.2689 52.1557 16.0226 52.3155 15.8026C52.4638 15.6009 52.6547 15.4351 52.8742 15.3172C53.1094 15.1955 53.3698 15.1317 53.634 15.131C53.9754 15.1526 54.309 15.2432 54.6151 15.3973C54.9212 15.5514 55.1936 15.766 55.4162 16.0283L56.4833 14.9899C55.9892 14.4263 55.3515 14.0105 54.6397 13.7878C54.3184 13.7054 53.9878 13.6656 53.6564 13.6693C53.1805 13.6627 52.7085 13.7569 52.2708 13.9458C51.8629 14.1261 51.4973 14.3915 51.1982 14.7246C50.8879 15.0749 50.6487 15.4833 50.4942 15.9267C50.3297 16.4323 50.2577 16.964 50.2819 17.4957C50.2755 18.0308 50.3586 18.5631 50.5277 19.0702C50.6695 19.5141 50.9038 19.9221 51.2149 20.2667C51.5089 20.5979 51.8713 20.8599 52.2764 21.0342C52.7085 21.2056 53.17 21.2881 53.634 21.2769Z" fill="white"></path>
      <path id="Vector_4" d="M87.9931 13.7822H86.4512V21.1585H87.9931V13.7822Z" fill="white"></path>
      <path id="Vector_5" d="M12.0402 34.5898H9.86133V36.4297H12.0402C13.5431 36.4297 13.6436 34.5898 12.0402 34.5898Z" fill="white"></path>
      <path id="Vector_6" d="M62.8977 27.451C62.9262 27.9538 62.78 28.4508 62.4843 28.8563C62.3488 29.0211 62.1775 29.1522 61.9837 29.2393C61.7899 29.3264 61.5789 29.3672 61.3669 29.3586C61.1539 29.3672 60.9418 29.3252 60.7478 29.236C60.5537 29.1469 60.3831 29.0129 60.2496 28.845C59.9616 28.4338 59.8181 27.9372 59.8417 27.4341V23.3086H58.3445V27.451C58.3357 27.9379 58.4094 28.4227 58.5623 28.8845C58.692 29.2741 58.9014 29.6318 59.1769 29.9342C59.4444 30.2213 59.773 30.4433 60.1378 30.5833C60.5323 30.7335 60.951 30.8082 61.3725 30.8034C61.7857 30.8265 62.1989 30.7599 62.5845 30.6081C62.97 30.4562 63.3187 30.2226 63.6073 29.923C64.1811 29.228 64.4691 28.3372 64.4118 27.4341V23.3086H62.9145L62.8977 27.451Z" fill="white"></path>
      <path id="Vector_7" d="M60.7344 21.2769C61.6674 21.2769 63.282 20.7634 63.7401 19.8435L62.6227 18.8671C62.3895 19.1422 62.1044 19.3678 61.784 19.5305C61.4637 19.6933 61.1144 19.7901 60.7567 19.8152C60.495 19.8198 60.236 19.7606 60.0016 19.6427C59.7673 19.5249 59.5644 19.3517 59.4103 19.138C59.2429 18.9164 59.1213 18.663 59.0527 18.393C58.9678 18.0941 58.9264 17.7842 58.9298 17.4731C58.9253 17.1546 58.9667 16.8371 59.0527 16.5306C59.1219 16.2636 59.2414 16.0126 59.4047 15.7913C59.5505 15.5873 59.7419 15.421 59.9634 15.306C60.2037 15.1886 60.4675 15.1287 60.7344 15.131C61.0853 15.1452 61.4296 15.2321 61.7458 15.3865C62.0621 15.5409 62.3434 15.7594 62.5724 16.0284L63.6395 14.9899C63.1473 14.4241 62.509 14.0079 61.7959 13.7878C61.4764 13.7058 61.1478 13.666 60.8182 13.6693C60.3422 13.6622 59.8701 13.7565 59.4326 13.9459C59.023 14.126 58.6556 14.3914 58.3544 14.7247C58.0441 15.0749 57.8049 15.4834 57.6504 15.9268C57.478 16.4235 57.3929 16.9468 57.399 17.4731C57.3908 18.0079 57.472 18.5402 57.6392 19.0477C57.7854 19.4896 58.0192 19.8967 58.3264 20.2442C58.6204 20.5753 58.9828 20.8373 59.3879 21.0117C59.8149 21.1893 60.2726 21.2795 60.7344 21.2769Z" fill="white"></path>
      <path id="Vector_8" d="M56.2704 26.6948C56.5009 26.5575 56.6931 26.3633 56.8291 26.1304C56.9729 25.8743 57.0462 25.5839 57.0414 25.2895C57.0679 25.0109 57.0256 24.7301 56.9184 24.472C56.8111 24.214 56.6422 23.9868 56.4268 23.8109C55.9214 23.4524 55.3115 23.2756 54.6949 23.3086H51.2422V30.6905H54.6502C55.0281 30.6972 55.4049 30.6458 55.7675 30.5381C56.0756 30.4469 56.3611 30.2911 56.6056 30.081C56.8483 29.8815 57.0399 29.626 57.1643 29.336C57.2987 29.0109 57.3652 28.6612 57.3598 28.3089C57.3736 27.9458 57.2675 27.5884 57.0581 27.293C56.8511 27.0282 56.5797 26.8221 56.2704 26.6948ZM52.7115 24.6687H54.6167C54.8591 24.6456 55.1023 24.703 55.3094 24.8324C55.3818 24.8979 55.4385 24.9792 55.4753 25.0702C55.5121 25.1611 55.528 25.2592 55.5217 25.3572C55.5258 25.4492 55.5115 25.541 55.4799 25.6272C55.4482 25.7135 55.3998 25.7925 55.3374 25.8595C55.1516 26.0099 54.915 26.0808 54.6781 26.0571H52.7115V24.6687ZM55.505 29.0313C55.2799 29.2188 54.9912 29.3099 54.7005 29.2852H52.7115V27.3777H54.706C55.4156 27.3777 55.7731 27.6937 55.7731 28.3258C55.7808 28.4554 55.7614 28.5852 55.7161 28.7067C55.6709 28.8283 55.6009 28.9389 55.5106 29.0313H55.505Z" fill="white"></path>
      <path id="Vector_9" d="M11.8167 31.4293H9.86133V33.1506H11.8949C12.012 33.153 12.1282 33.1312 12.2366 33.0864C12.3449 33.0416 12.4429 32.9748 12.5247 32.8902C12.6064 32.8055 12.67 32.7048 12.7116 32.5943C12.7532 32.4838 12.7719 32.3658 12.7666 32.2477C12.7612 32.1296 12.7319 32.0139 12.6804 31.9077C12.629 31.8015 12.5565 31.7071 12.4674 31.6304C12.3784 31.5536 12.2747 31.4962 12.1627 31.4616C12.0508 31.427 11.933 31.416 11.8167 31.4293Z" fill="white"></path>
      <path id="Vector_10" d="M19.2757 31.4292H17.3203V33.1505H19.3483C19.4655 33.1536 19.582 33.1323 19.6907 33.088C19.7994 33.0437 19.8979 32.9772 19.9801 32.8928C20.0623 32.8084 20.1264 32.7079 20.1685 32.5974C20.2106 32.4869 20.2297 32.3688 20.2247 32.2505C20.2197 32.1323 20.1907 32.0163 20.1395 31.9098C20.0882 31.8033 20.0159 31.7086 19.9269 31.6316C19.8379 31.5546 19.7341 31.4968 19.6221 31.462C19.5101 31.4272 19.3922 31.416 19.2757 31.4292Z" fill="white"></path>
      <path id="Vector_11" d="M66.3617 18.5053L67.7305 18.5674L69.3395 21.1635H71.1106L69.401 18.3416C69.8986 18.1733 70.3423 17.8731 70.686 17.4725C70.8963 17.1142 71.0205 16.7111 71.0487 16.2955C71.0768 15.88 71.0081 15.4635 70.848 15.0796C70.7193 14.7954 70.5282 14.5445 70.2893 14.3459C70.0403 14.1433 69.7534 13.9936 69.4457 13.9057C69.1128 13.8123 68.7688 13.7648 68.4233 13.7646H64.8086V21.1635H66.3506L66.3617 18.5053ZM66.3617 15.2151H68.373C68.6595 15.1982 68.9437 15.2754 69.1831 15.4352C69.2849 15.5224 69.3644 15.633 69.4149 15.7577C69.4655 15.8825 69.4856 16.0177 69.4736 16.1519C69.4736 16.7953 69.1049 17.1113 68.3563 17.1113H66.345L66.3617 15.2151Z" fill="white"></path>
      <path id="Vector_12" d="M19.5048 34.5898H17.3203V36.4297H19.4992C21.0076 36.4297 21.1026 34.5898 19.5048 34.5898Z" fill="white"></path>
      <path id="Vector_13" d="M26.9621 34.5898H24.7832V36.4297H26.9621C28.4929 36.4297 28.5655 34.5898 26.9621 34.5898Z" fill="white"></path>
      <path id="Vector_14" d="M26.7386 31.4293H24.7832V33.1506H26.8168C26.9338 33.153 27.0501 33.1312 27.1584 33.0864C27.2668 33.0416 27.3648 32.9748 27.4465 32.8902C27.5282 32.8055 27.5919 32.7048 27.6335 32.5943C27.6751 32.4838 27.6938 32.3658 27.6885 32.2477C27.6831 32.1296 27.6538 32.0139 27.6023 31.9077C27.5508 31.8015 27.4783 31.7071 27.3893 31.6304C27.3002 31.5536 27.1965 31.4962 27.0846 31.4616C26.9727 31.427 26.8549 31.416 26.7386 31.4293Z" fill="white"></path>
      <path id="Vector_15" d="M107.961 14.6166C107.612 14.3147 107.199 14.0967 106.754 13.9789C106.257 13.8444 105.744 13.778 105.229 13.7814H102.799V21.1633H105.095C105.585 21.1628 106.072 21.0906 106.542 20.9488C107.006 20.8224 107.442 20.6079 107.827 20.3167C108.202 20.0119 108.506 19.6263 108.715 19.188C108.953 18.6569 109.068 18.0777 109.051 17.4949C109.064 16.9168 108.966 16.3415 108.76 15.8018C108.591 15.348 108.317 14.9416 107.961 14.6166ZM107.33 18.3922C107.243 18.6597 107.096 18.9032 106.9 19.1033C106.692 19.3103 106.443 19.4684 106.168 19.5661C105.83 19.6814 105.474 19.7368 105.117 19.7298H104.358V15.2374H105.173C105.489 15.208 105.807 15.2428 106.11 15.3397C106.412 15.4367 106.692 15.5938 106.933 15.8018C107.331 16.2708 107.532 16.8785 107.492 17.4949C107.487 17.801 107.432 18.1042 107.33 18.3922Z" fill="white"></path>
      <path id="Vector_16" d="M89.2051 15.2383H91.4175V21.1641H92.9595V15.2383H95.1663V13.7822H89.2051V15.2383Z" fill="white"></path>
      <path id="Vector_17" d="M84.8137 27.4623H88.0094V26.0288H84.8137V24.7534H88.6184V23.3086H83.2773V30.6905H88.786V29.2457H84.8137V27.4623Z" fill="white"></path>
      <path id="Vector_18" d="M80.1597 26.4295V26.8189C80.1597 26.977 80.1597 27.135 80.1597 27.293C80.1597 27.451 80.1597 27.5978 80.1597 27.7332C80.1597 27.8687 80.1597 27.9759 80.1597 28.0436C80.0904 27.9115 80.0139 27.7834 79.9306 27.6598L79.6345 27.2084L76.9807 23.3086H75.5449V30.6905H77.0254V27.4454C77.0254 27.3382 77.0254 27.2084 77.0254 27.0503C77.0254 26.8923 77.0254 26.7456 77.0254 26.5876C77.0254 26.4295 77.0254 26.2772 77.0254 26.1417C77.0254 26.0063 77.0254 25.899 77.0254 25.8313C77.0947 25.9634 77.1712 26.0915 77.2545 26.2151C77.3551 26.3731 77.4556 26.5198 77.5506 26.6609L80.3049 30.6905H81.6402V23.3086H80.1653L80.1597 26.4295Z" fill="white"></path>
      <path id="Vector_19" d="M84.6293 19.1428C84.8675 18.6117 84.9822 18.0326 84.9645 17.4497C84.9759 16.8718 84.8773 16.297 84.674 15.7566C84.4959 15.3226 84.2205 14.9362 83.8695 14.6279C83.5276 14.3249 83.1229 14.1032 82.6851 13.9789C82.1877 13.8444 81.6748 13.778 81.1599 13.7814H78.752V21.1633H81.009C81.4991 21.1624 81.9864 21.0902 82.456 20.9488C82.9189 20.8236 83.3534 20.6089 83.7354 20.3167C84.1196 20.0008 84.4256 19.5989 84.6293 19.1428ZM83.2438 18.3922C83.1569 18.6597 83.0096 18.9032 82.8136 19.1033C82.6065 19.3103 82.3565 19.4684 82.0817 19.5661C81.7377 19.6912 81.3746 19.7543 81.009 19.7524H80.2492V15.2374H81.0649C81.3807 15.208 81.6991 15.2428 82.0014 15.3397C82.3036 15.4367 82.5836 15.5938 82.8248 15.8018C83.2228 16.2708 83.4233 16.8785 83.3835 17.4949C83.3858 17.7997 83.3386 18.1028 83.2438 18.3922Z" fill="white"></path>
      <path id="Vector_20" d="M94.1002 26.8185C93.8531 26.6468 93.5819 26.5136 93.2957 26.4234C92.9996 26.3275 92.7034 26.2485 92.4018 26.1751C92.1001 26.1018 91.8431 26.0453 91.6643 25.9889C91.5041 25.9447 91.3487 25.8842 91.2006 25.8083C91.104 25.7583 91.0214 25.6845 90.9603 25.5938C90.9134 25.5014 90.8903 25.3985 90.8933 25.2947C90.8921 25.2111 90.9092 25.1282 90.9436 25.052C90.9873 24.9668 91.0505 24.8932 91.128 24.8376C91.2298 24.7671 91.3434 24.7155 91.4632 24.6852C91.6274 24.6431 91.7966 24.6241 91.966 24.6288C92.2853 24.6235 92.6019 24.689 92.8934 24.8207C93.1817 24.9635 93.4442 25.1543 93.67 25.385L94.7482 24.3522C94.4037 23.9978 93.9987 23.7091 93.5526 23.5C93.0684 23.2872 92.5442 23.1832 92.0163 23.1953C91.6629 23.1938 91.3111 23.2432 90.9715 23.342C90.6646 23.4307 90.3767 23.5762 90.1223 23.7709C89.8891 23.9525 89.6984 24.1837 89.5636 24.4482C89.4214 24.7291 89.3504 25.0413 89.3569 25.3568C89.3462 25.6708 89.4054 25.9832 89.5301 26.2711C89.6382 26.5126 89.8032 26.7238 90.0106 26.8862C90.2371 27.0565 90.4876 27.1915 90.7536 27.2869C91.065 27.395 91.3821 27.4855 91.7034 27.5578C92.0498 27.6368 92.3403 27.7102 92.5582 27.7779C92.7367 27.8304 92.9076 27.9063 93.0666 28.0037C93.1677 28.0602 93.2509 28.1443 93.3068 28.2463C93.3532 28.343 93.3762 28.4494 93.3739 28.5567C93.3819 28.6789 93.3565 28.801 93.3003 28.9096C93.2441 29.0181 93.1594 29.1089 93.0554 29.1719C92.7467 29.3176 92.4065 29.3817 92.0665 29.3581C91.7131 29.3608 91.3624 29.2957 91.033 29.1663C90.6911 29.0252 90.3883 28.8025 90.1503 28.5172L89.0664 29.4654C89.3616 29.9058 89.7715 30.2554 90.2508 30.4756C90.7903 30.7181 91.3755 30.8395 91.966 30.8311C92.4113 30.8405 92.8556 30.7834 93.2845 30.6618C93.6206 30.5705 93.9331 30.4069 94.2007 30.1821C94.4482 29.9897 94.641 29.7347 94.7594 29.4428C94.8788 29.1375 94.9376 28.8116 94.9326 28.4834C94.9467 28.1381 94.8696 27.7953 94.7091 27.4901C94.5594 27.2223 94.3511 26.9926 94.1002 26.8185Z" fill="white"></path>
      <path id="Vector_21" d="M100.564 26.8186C100.317 26.6469 100.046 26.5137 99.7594 26.4235C99.4633 26.3276 99.1616 26.2486 98.8655 26.1752C98.5694 26.1018 98.3068 26.0454 98.1225 25.9889C97.964 25.9449 97.8104 25.8844 97.6643 25.8083C97.5652 25.7621 97.4817 25.6875 97.4241 25.5939C97.3729 25.5029 97.3478 25.3994 97.3515 25.2948C97.3501 25.2105 97.3693 25.1271 97.4074 25.0521C97.4481 24.9666 97.5096 24.8928 97.5861 24.8376C97.6892 24.7693 97.8023 24.7179 97.9213 24.6853C98.0856 24.6431 98.2548 24.6241 98.4242 24.6288C98.7435 24.623 99.0602 24.6885 99.3516 24.8207C99.6399 24.9636 99.9024 25.1543 100.128 25.3851L101.212 24.3523C100.863 23.9979 100.454 23.7094 100.005 23.5001C99.1865 23.1577 98.2778 23.102 97.4241 23.3421C97.1155 23.4307 96.8257 23.5761 96.5693 23.771C96.3371 23.9536 96.1466 24.1846 96.0106 24.4482C95.8667 24.7287 95.7937 25.0409 95.7983 25.3569C95.7876 25.6709 95.8468 25.9833 95.9715 26.2711C96.0796 26.5127 96.2446 26.7239 96.452 26.8863C96.6792 27.0554 96.9295 27.1904 97.195 27.287C97.5066 27.3943 97.8237 27.4848 98.1448 27.5579C98.4968 27.6369 98.7817 27.7103 99.0052 27.778C99.1833 27.8316 99.3541 27.9074 99.5136 28.0037C99.6134 28.0618 99.6963 28.1455 99.7538 28.2464C99.7956 28.3444 99.8165 28.4501 99.8153 28.5568C99.8233 28.6784 99.7984 28.7998 99.7433 28.9082C99.6882 29.0166 99.6049 29.1077 99.5024 29.172C99.1915 29.317 98.8496 29.381 98.508 29.3582C98.1545 29.3609 97.8038 29.2958 97.4744 29.1663C97.1326 29.0252 96.8297 28.8025 96.5917 28.5173L95.5078 29.4654C95.8045 29.9045 96.214 30.2537 96.6922 30.4756C97.2317 30.7182 97.8169 30.8395 98.4074 30.8312C98.8546 30.8401 99.3006 30.7831 99.7315 30.6619C100.067 30.5693 100.379 30.4058 100.648 30.1822C100.892 29.9866 101.084 29.7324 101.206 29.4429C101.321 29.1365 101.378 28.811 101.374 28.4834C101.388 28.1382 101.311 27.7953 101.151 27.4902C101.006 27.2257 100.806 26.9965 100.564 26.8186Z" fill="white"></path>
      <path id="Vector_22" d="M77.579 19.7193H73.6123V17.9359H76.8024V16.5025H73.6123V15.227H77.4169V13.7822H72.0703V21.1641H77.579V19.7193Z" fill="white"></path>
      <path id="Vector_23" d="M97.6982 17.9359H100.894V16.5025H97.6982V15.227H101.503V13.7822H96.1562V21.1641H101.665V19.7193H97.6982V17.9359Z" fill="white"></path>
      <path id="Vector_24" d="M70.4774 26.8189C70.2304 26.6472 69.9592 26.5141 69.6729 26.4239C69.3768 26.3279 69.0807 26.2489 68.779 26.1756C68.4773 26.1022 68.2203 26.0458 68.0415 25.9893C67.8813 25.9452 67.7259 25.8847 67.5778 25.8087C67.4812 25.7587 67.3986 25.6849 67.3376 25.5943C67.2906 25.5019 67.2675 25.399 67.2705 25.2952C67.2693 25.2115 67.2865 25.1286 67.3208 25.0525C67.3645 24.9672 67.4277 24.8937 67.5052 24.838C67.6056 24.7685 67.7171 24.717 67.8348 24.6856C68.001 24.6439 68.172 24.6249 68.3432 24.6292C68.6652 24.6266 68.9838 24.696 69.2762 24.8324C69.5645 24.9752 69.8271 25.166 70.0528 25.3967L71.1311 24.364C70.7866 24.0095 70.3815 23.7208 69.9355 23.5118C69.4513 23.2989 68.927 23.1949 68.3991 23.207C68.0457 23.2055 67.6939 23.2549 67.3543 23.3537C67.0474 23.4424 66.7595 23.5879 66.5051 23.7827C66.272 23.9642 66.0812 24.1955 65.9464 24.4599C65.8042 24.7408 65.7332 25.053 65.7397 25.3685C65.73 25.6819 65.7872 25.9937 65.9073 26.2828C66.0193 26.5236 66.1858 26.7343 66.3934 26.8979C66.6199 27.0682 66.8704 27.2032 67.1364 27.2986C67.4478 27.4067 67.7649 27.4972 68.0862 27.5695C68.4326 27.6486 68.7231 27.7219 68.941 27.7896C69.1195 27.8421 69.2905 27.918 69.4494 28.0154C69.5505 28.0719 69.6337 28.156 69.6896 28.2581C69.736 28.3547 69.759 28.4611 69.7567 28.5685C69.7647 28.6907 69.7393 28.8127 69.6831 28.9213C69.6269 29.0298 69.5422 29.1206 69.4382 29.1836C69.1295 29.3293 68.7893 29.3934 68.4494 29.3699C68.0959 29.3725 67.7452 29.3074 67.4158 29.178C67.074 29.0369 66.7711 28.8142 66.5331 28.529L65.4492 29.4771C65.7445 29.9126 66.1522 30.2581 66.628 30.476C67.1675 30.7186 67.7528 30.8399 68.3432 30.8316C68.7886 30.8409 69.2328 30.7839 69.6617 30.6623C69.9978 30.571 70.3104 30.4073 70.578 30.1825C70.8255 29.9902 71.0182 29.7351 71.1366 29.4432C71.256 29.138 71.3149 28.812 71.3098 28.4838C71.3239 28.1386 71.2468 27.7957 71.0864 27.4905C70.9366 27.2228 70.7283 26.9931 70.4774 26.8189Z" fill="white"></path>
      <path id="Vector_25" d="M74.0031 23.3086H72.5059V30.6848H74.0031V23.3086Z" fill="white"></path>
      <path id="Vector_26" d="M23.0859 37.953H26.818C28.4046 37.953 30.0919 37.2532 29.8181 35.4021C29.6673 34.3467 29.2594 34.0928 28.399 33.709C28.7086 33.5504 28.9686 33.3082 29.15 33.0093C29.3315 32.7104 29.4274 32.3665 29.427 32.0159C29.427 30.4978 28.1979 29.877 26.8515 29.877H23.0859V37.953ZM24.762 31.429H26.7174C26.8329 31.4156 26.9498 31.4261 27.0612 31.4599C27.1725 31.4937 27.2758 31.5501 27.3648 31.6257C27.4538 31.7012 27.5266 31.7943 27.5788 31.8992C27.6309 32.0041 27.6614 32.1187 27.6682 32.2359C27.6751 32.3531 27.6582 32.4705 27.6186 32.5809C27.579 32.6913 27.5175 32.7924 27.4379 32.878C27.3584 32.9636 27.2623 33.0319 27.1557 33.0787C27.0491 33.1255 26.9342 33.1499 26.818 33.1503H24.7843L24.762 31.429ZM24.762 34.5894H26.9409C28.5443 34.5894 28.4437 36.4292 26.9409 36.4292H24.762V34.5894Z" fill="#545253"></path>
      <path id="Vector_27" d="M17.1905 12.2414L21.6991 15.5881C22.6098 16.2653 22.7327 17.9866 22.0678 18.8727L22.4478 19.1605L25.5596 14.7416C25.9268 14.2553 26.1953 13.7006 26.35 13.1093C26.5046 12.518 26.5422 11.9017 26.4608 11.2957C26.3793 10.6897 26.1803 10.1059 25.8751 9.5777C25.57 9.04949 25.1647 8.58727 24.6825 8.2175L19.8555 4.67894C19.6804 4.57416 19.5289 4.43381 19.4104 4.26679C19.2918 4.09976 19.209 3.90969 19.1669 3.70862C19.1249 3.50755 19.1247 3.29986 19.1663 3.09869C19.2079 2.89753 19.2903 2.70728 19.4085 2.53999L18.9951 2.25781L16.2519 6.08985C14.9669 7.90146 15.4307 10.9377 17.1905 12.2414Z" fill="#545253"></path>
      <path id="Vector_28" d="M30.2308 37.8521C30.1865 37.86 30.1411 37.86 30.0967 37.8521C30.0561 37.831 30.0185 37.8044 29.985 37.773L29.918 37.8464C29.9547 37.8871 30.0008 37.9181 30.0521 37.9367C30.107 37.9594 30.1659 37.9709 30.2252 37.9706C30.2697 37.9768 30.3148 37.9768 30.3593 37.9706C30.3937 37.9593 30.4258 37.9421 30.4543 37.9198C30.4808 37.8966 30.5018 37.8676 30.5158 37.8351C30.5221 37.8016 30.5221 37.7671 30.5158 37.7335C30.522 37.7057 30.522 37.6767 30.5158 37.6489C30.5064 37.6214 30.4911 37.5964 30.4711 37.5755C30.4477 37.5492 30.4192 37.528 30.3873 37.5134L30.2588 37.4626L30.147 37.4175C30.123 37.4051 30.1005 37.39 30.08 37.3723C30.0643 37.3613 30.0526 37.3455 30.0465 37.3272C30.0434 37.3104 30.0434 37.2932 30.0465 37.2764C30.0439 37.2596 30.0439 37.2424 30.0465 37.2256C30.0537 37.2094 30.0631 37.1942 30.0744 37.1805H30.1303H30.2141C30.2548 37.1736 30.2963 37.1736 30.337 37.1805C30.3729 37.197 30.4066 37.2178 30.4376 37.2425L30.5046 37.1635C30.4668 37.1355 30.4255 37.1127 30.3817 37.0958C30.3297 37.0768 30.2749 37.0673 30.2197 37.0676C30.1807 37.0621 30.1413 37.0621 30.1023 37.0676C30.0695 37.0756 30.039 37.0911 30.0129 37.1127C29.988 37.133 29.9672 37.1579 29.9515 37.1861C29.9457 37.2178 29.9457 37.2503 29.9515 37.282C29.9479 37.311 29.9511 37.3403 29.9608 37.3678C29.9705 37.3952 29.9865 37.42 30.0074 37.4401C30.0336 37.4614 30.0616 37.4803 30.0912 37.4965L30.2141 37.5473L30.3202 37.5924L30.3929 37.6376C30.4085 37.6486 30.4203 37.6645 30.4264 37.6827C30.429 37.7015 30.429 37.7205 30.4264 37.7392C30.4278 37.7621 30.4234 37.785 30.4136 37.8057C30.4038 37.8265 30.389 37.8443 30.3705 37.8577C30.3246 37.871 30.2756 37.869 30.2308 37.8521Z" fill="#545253"></path>
      <path id="Vector_29" d="M30.795 37.3159V37.2143V37.2482C30.7957 37.2614 30.7957 37.2746 30.795 37.2877V37.3272V37.3667L31.0352 37.9311L31.2867 37.3667V37.3272V37.2877C31.2833 37.2748 31.2833 37.2612 31.2867 37.2482V37.2143V37.9311H31.3872V37.0225H31.2699L31.052 37.5868V37.632C31.0499 37.6488 31.0499 37.6659 31.052 37.6828V37.7279C31.0512 37.7392 31.0512 37.7505 31.052 37.7618C31.052 37.7618 31.052 37.7618 31.052 37.7279V37.6828V37.632V37.5868L30.8341 37.0225H30.7168V37.9311H30.8174L30.795 37.3159Z" fill="#545253"></path>
      <path id="Vector_30" d="M20.9278 33.7148C21.2388 33.5575 21.5002 33.3158 21.6828 33.0167C21.8653 32.7176 21.9618 32.3731 21.9613 32.0218C21.9613 30.5036 20.7266 29.8828 19.3802 29.8828H15.6426V37.9532H19.3634C20.9557 37.9532 22.6373 37.2534 22.3692 35.4023C22.196 34.3469 21.7881 34.093 20.9278 33.7148ZM17.3186 31.4292H19.274C19.3903 31.4159 19.5081 31.4269 19.62 31.4615C19.732 31.4961 19.8357 31.5535 19.9247 31.6302C20.0138 31.707 20.0863 31.8014 20.1377 31.9076C20.1892 32.0137 20.2185 32.1295 20.2239 32.2476C20.2293 32.3657 20.2105 32.4837 20.1689 32.5942C20.1273 32.7047 20.0637 32.8054 19.982 32.89C19.9002 32.9747 19.8022 33.0415 19.6939 33.0863C19.5855 33.1311 19.4693 33.1529 19.3523 33.1505H17.3186V31.4292ZM19.4975 36.4294H17.3186V34.5896H19.4975C21.1009 34.5896 21.006 36.4294 19.5031 36.4294H19.4975Z" fill="#545253"></path>
      <path id="Vector_31" d="M14.8887 35.4021C14.7323 34.3467 14.33 34.0928 13.4696 33.709C13.7792 33.5504 14.0391 33.3082 14.2206 33.0093C14.4021 32.7104 14.498 32.3665 14.4976 32.0159C14.4976 30.4978 13.2685 29.877 11.9221 29.877H8.16211V37.9474H11.883C13.4752 37.953 15.1624 37.2476 14.8887 35.4021ZM9.86052 31.4515H11.8159C11.9322 31.4383 12.05 31.4493 12.1619 31.4838C12.2738 31.5184 12.3775 31.5759 12.4666 31.6526C12.5556 31.7293 12.6282 31.8237 12.6796 31.9299C12.7311 32.0361 12.7604 32.1518 12.7658 32.27C12.7711 32.3881 12.7524 32.506 12.7108 32.6165C12.6692 32.7271 12.6056 32.8278 12.5238 32.9124C12.4421 32.9971 12.3441 33.0638 12.2357 33.1086C12.1274 33.1534 12.0112 33.1753 11.8941 33.1728H9.86052V31.4515ZM9.86052 34.612H12.0394C13.6428 34.612 13.5423 36.4518 12.0394 36.4518H9.86052V34.612Z" fill="#545253"></path>
      <path id="Vector_32" d="M15.0012 19.8152L18.2695 22.1968C18.8282 22.6032 18.8729 23.0095 18.6047 23.4384L19.0796 23.794L20.7557 21.4801C21.0243 21.1516 21.2237 20.7711 21.3415 20.362C21.4593 19.9528 21.4931 19.5237 21.4408 19.1009C21.3885 18.678 21.2512 18.2705 21.0373 17.9032C20.8234 17.536 20.5374 17.2168 20.197 16.9652L16.9007 14.5384C16.728 14.4143 16.6094 14.2276 16.5699 14.0172C16.5303 13.8068 16.5728 13.5891 16.6884 13.4097L16.2135 13.0654L14.4481 15.5148C13.5207 16.7564 13.7944 18.9348 15.0012 19.8152Z" fill="#545253"></path>
      <path id="Vector_33" d="M16.0452 28.495H21.9896L22.6321 26.2714H26.2579L25.7831 24.6348H12.2405L11.7656 26.2714H15.3971L16.0452 28.495Z" fill="#545253"></path>
      <path id="Vector_34" d="M55.3555 25.8764C55.4179 25.8093 55.4663 25.7304 55.498 25.6441C55.5297 25.5578 55.5439 25.466 55.5398 25.3741C55.5467 25.2719 55.5295 25.1696 55.4897 25.0754C55.4499 24.9813 55.3886 24.898 55.3108 24.8323C55.101 24.6934 54.8511 24.6298 54.6013 24.6517H52.7129V26.0739H54.6962C54.9331 26.0976 55.1697 26.0267 55.3555 25.8764Z" fill="#545253"></path>
      <path id="Vector_35" d="M54.7074 27.377H52.7129V29.2845H54.7074C54.9981 29.3092 55.2868 29.218 55.5119 29.0305C55.6022 28.9381 55.6723 28.8276 55.7175 28.706C55.7627 28.5845 55.7822 28.4547 55.7745 28.3251C55.7745 27.693 55.4169 27.377 54.7074 27.377Z" fill="#545253"></path>
      <path id="Vector_36" d="M81.0813 15.2376H80.2656V19.7525H81.0087C81.3655 19.7591 81.7208 19.7037 82.059 19.5888C82.3338 19.4911 82.5838 19.333 82.7909 19.126C82.9869 18.9259 83.1342 18.6824 83.2211 18.4149C83.3183 18.1184 83.3656 17.8074 83.3608 17.495C83.4006 16.8786 83.2001 16.2709 82.8021 15.8019C82.3247 15.3918 81.7062 15.1889 81.0813 15.2376Z" fill="#545253"></path>
      <path id="Vector_37" d="M109.38 0H5.62039C4.13067 0.00298287 2.70282 0.602105 1.64943 1.6662C0.596047 2.73029 0.00295286 4.17265 0 5.67751L0 36.3225C0.00442138 37.8269 0.597987 39.2684 1.65106 40.3322C2.70413 41.3959 4.13113 41.9955 5.62039 42H109.38C110.869 41.9955 112.296 41.3959 113.349 40.3322C114.402 39.2684 114.996 37.8269 115 36.3225V5.67751C114.996 4.17311 114.402 2.73161 113.349 1.66784C112.296 0.604065 110.869 0.00446632 109.38 0ZM86.4735 13.7818H88.0154V21.1637H86.4735V13.7818ZM37.9907 41.1478H5.62039C4.35351 41.1478 3.13852 40.6394 2.2427 39.7345C1.34688 38.8296 0.843616 37.6022 0.843616 36.3225V5.67751C0.843616 4.39775 1.34688 3.17041 2.2427 2.26549C3.13852 1.36057 4.35351 0.85219 5.62039 0.85219H37.9907V41.1478ZM48.3096 21.1637L47.7062 19.5157H44.9128L44.2871 21.1637H42.611L45.5609 13.7818H47.0582L50.0024 21.1637H48.3096ZM50.5052 19.0473C50.3462 18.546 50.2707 18.0216 50.2818 17.4953C50.2747 16.9684 50.3617 16.4446 50.5388 15.9489C50.6932 15.5055 50.9324 15.0971 51.2427 14.7468C51.5419 14.4137 51.9075 14.1483 52.3154 13.968C52.7531 13.7791 53.225 13.6849 53.7009 13.6915C54.0324 13.6878 54.3629 13.7276 54.6842 13.81C55.3961 14.0328 56.0338 14.4486 56.5279 15.0121L55.4384 16.028C55.2133 15.763 54.9373 15.5469 54.6271 15.3927C54.317 15.2384 53.9791 15.1493 53.6339 15.1306C53.3686 15.1269 53.1063 15.1869 52.8685 15.3056C52.6489 15.4235 52.4581 15.5893 52.3098 15.7909C52.1508 16.0148 52.0317 16.265 51.9578 16.5302C51.8764 16.8451 51.8388 17.1699 51.8461 17.4953C51.8439 17.7981 51.8814 18.0998 51.9578 18.3926C52.0312 18.6608 52.1524 18.9133 52.3154 19.1376C52.4643 19.3416 52.6548 19.511 52.8741 19.6342C53.1107 19.7568 53.3736 19.8188 53.6395 19.8148C53.9982 19.7904 54.3484 19.694 54.6698 19.5312C54.9912 19.3684 55.2772 19.1425 55.5111 18.8667L56.6285 19.8431C56.1647 20.763 54.5501 21.2765 53.6227 21.2765C53.1516 21.2829 52.684 21.1926 52.2483 21.0113C51.8432 20.8369 51.4809 20.5749 51.1868 20.2438C50.8778 19.8986 50.6454 19.4907 50.5052 19.0473ZM57.1257 29.347C57.0013 29.637 56.8097 29.8925 56.567 30.0919C56.3225 30.3021 56.037 30.4578 55.729 30.549C55.3663 30.6567 54.9895 30.7081 54.6116 30.7014H51.2036V23.3083H54.6451C55.2618 23.2752 55.8716 23.4521 56.377 23.8105C56.5945 23.9801 56.7673 24.2011 56.8803 24.454C56.9933 24.707 57.043 24.9841 57.0251 25.261C57.03 25.5554 56.9567 25.8457 56.8128 26.1019C56.6769 26.3347 56.4846 26.5289 56.2541 26.6662C56.5493 26.7993 56.8067 27.005 57.0028 27.2644C57.2122 27.5599 57.3183 27.9172 57.3045 28.2803C57.3207 28.6447 57.2598 29.0083 57.1257 29.347ZM57.6117 19.0586C57.4445 18.5511 57.3633 18.0188 57.3715 17.484C57.3654 16.9577 57.4505 16.4344 57.6229 15.9377C57.7774 15.4943 58.0166 15.0858 58.3269 14.7356C58.6281 14.4023 58.9955 14.1369 59.4051 13.9567C59.8426 13.7673 60.3147 13.6731 60.7907 13.6802C61.1203 13.6769 61.4489 13.7167 61.7684 13.7987C62.4815 14.0188 63.1198 14.435 63.612 15.0008L62.5729 16.028C62.3509 15.7663 62.0794 15.5521 61.7743 15.398C61.4692 15.2439 61.1366 15.153 60.7962 15.1306C60.5294 15.1283 60.2655 15.1882 60.0253 15.3056C59.8038 15.4206 59.6124 15.5869 59.4666 15.7909C59.3033 16.0122 59.1837 16.2632 59.1146 16.5302C59.0286 16.8367 58.9872 17.1542 58.9917 17.4727C58.9883 17.7838 59.0297 18.0936 59.1146 18.3926C59.1832 18.6626 59.3048 18.916 59.4722 19.1376C59.6263 19.3513 59.8292 19.5244 60.0635 19.6423C60.2979 19.7602 60.5568 19.8194 60.8186 19.8148C61.1763 19.7897 61.5255 19.6929 61.8459 19.5301C62.1662 19.3674 62.4514 19.1418 62.6846 18.8667L63.802 19.8431C63.3439 20.763 61.7293 21.2765 60.7962 21.2765C60.3251 21.2829 59.8576 21.1926 59.4219 21.0113C59.0167 20.8369 58.6544 20.5749 58.3604 20.2438C58.0311 19.9019 57.7761 19.4944 57.6117 19.0473V19.0586ZM64.3942 27.445C64.4457 28.3405 64.1581 29.2222 63.5897 29.9113C63.3011 30.2109 62.9524 30.4445 62.5669 30.5964C62.1814 30.7483 61.7681 30.8149 61.3549 30.7917C60.9334 30.7965 60.5147 30.7219 60.1202 30.5716C59.7523 30.4291 59.4216 30.2032 59.1537 29.9113C58.8782 29.6088 58.6688 29.2512 58.5392 28.8616C58.3862 28.3998 58.3125 27.915 58.3213 27.4281V23.3083H59.8186V27.4338C59.7949 27.9368 59.9384 28.4335 60.2264 28.8447C60.3599 29.0126 60.5305 29.1465 60.7246 29.2357C60.9187 29.3249 61.1307 29.3669 61.3438 29.3582C61.5557 29.3669 61.7668 29.3261 61.9605 29.239C62.1543 29.1519 62.3256 29.0208 62.4611 28.856C62.7568 28.4505 62.903 27.9535 62.8746 27.4507V23.3083H64.3718L64.3942 27.445ZM64.8076 13.7818H68.3944C68.7399 13.782 69.0839 13.8294 69.4168 13.9229C69.7245 14.0107 70.0114 14.1605 70.2604 14.3631C70.4993 14.5617 70.6904 14.8125 70.8191 15.0967C70.9792 15.4806 71.0479 15.8971 71.0198 16.3127C70.9916 16.7282 70.8674 17.1314 70.6571 17.4897C70.3134 17.8903 69.8697 18.1904 69.3721 18.3588L71.0817 21.1806H69.3106L67.7016 18.5845L66.3328 18.5224V21.1637H64.8076V13.7818ZM71.104 29.4147C70.9856 29.7066 70.7928 29.9616 70.5453 30.154C70.2777 30.3788 69.9652 30.5424 69.6291 30.6337C69.2002 30.7553 68.7559 30.8124 68.3106 30.803C67.7201 30.8113 67.1349 30.69 66.5954 30.4475C66.1134 30.2376 65.6979 29.8979 65.3942 29.4655L66.4781 28.5173C66.7161 28.8025 67.019 29.0252 67.3608 29.1664C67.6902 29.2958 68.0409 29.3609 68.3944 29.3582C68.7343 29.3818 69.0746 29.3177 69.3833 29.172C69.4872 29.109 69.5719 29.0182 69.6281 28.9096C69.6843 28.8011 69.7098 28.679 69.7017 28.5568C69.704 28.4495 69.6811 28.3431 69.6347 28.2464C69.5788 28.1444 69.4955 28.0602 69.3944 28.0038C69.2355 27.9064 69.0646 27.8305 68.886 27.778C68.6681 27.7103 68.3776 27.6369 68.0312 27.5579C67.7099 27.4855 67.3928 27.3951 67.0815 27.287C66.8154 27.1916 66.5649 27.0565 66.3384 26.8863C66.1308 26.7227 65.9643 26.5119 65.8524 26.2712C65.7322 25.9821 65.675 25.6703 65.6848 25.3569C65.6782 25.0414 65.7492 24.7292 65.8915 24.4483C66.0262 24.1838 66.217 23.9526 66.4502 23.771C66.7045 23.5762 66.9925 23.4308 67.2994 23.3421C67.6389 23.2433 67.9907 23.1938 68.3441 23.1954C68.872 23.1833 69.3963 23.2873 69.8805 23.5001C70.3266 23.7092 70.7316 23.9979 71.0761 24.3523L70.0481 25.3964C69.8241 25.1662 69.5635 24.9754 69.2771 24.832C68.9856 24.7004 68.669 24.6349 68.3497 24.6402C68.1785 24.6359 68.0075 24.6548 67.8413 24.6966C67.7236 24.7279 67.6121 24.7795 67.5117 24.849C67.4342 24.9046 67.371 24.9781 67.3273 25.0634C67.2929 25.1396 67.2758 25.2224 67.277 25.3061C67.274 25.4099 67.2971 25.5128 67.3441 25.6052C67.4051 25.6959 67.4877 25.7696 67.5843 25.8197C67.7324 25.8956 67.8878 25.9561 68.048 26.0003C68.238 26.0567 68.4894 26.1188 68.7855 26.1865C69.0816 26.2542 69.3833 26.3389 69.6794 26.4348C69.9656 26.525 70.2368 26.6582 70.4839 26.8299C70.7134 27.0016 70.9039 27.221 71.0426 27.4733C71.203 27.7785 71.2801 28.1213 71.266 28.4665C71.2767 28.7895 71.2255 29.1114 71.1152 29.4147H71.104ZM72.0705 13.7818H77.4172V15.2378H73.6125V16.5133H76.8026V17.9468H73.6125V19.7302H77.5792V21.1637H72.0705V13.7818ZM74.0036 30.7127H72.5063V23.3083H74.0036V30.7127ZM81.6353 30.7127H80.3L77.5457 26.6831C77.4507 26.5421 77.3501 26.3953 77.2496 26.2373C77.1662 26.1138 77.0898 25.9856 77.0205 25.8535C77.0205 25.9213 77.0205 26.0285 77.0205 26.1639C77.0205 26.2994 77.0205 26.4518 77.0205 26.6098C77.0205 26.7678 77.0205 26.9202 77.0205 27.0726C77.0205 27.2249 77.0205 27.3604 77.0205 27.4676V30.7127H75.54V23.3083H76.9758L79.6296 27.208L79.9257 27.6595C80.009 27.783 80.0855 27.9112 80.1547 28.0433C80.1547 27.9755 80.1547 27.8683 80.1547 27.7329C80.1547 27.5974 80.1547 27.4507 80.1547 27.2927C80.1547 27.1346 80.1547 26.9766 80.1547 26.8186V23.3083H81.6297L81.6353 30.7127ZM81.0095 21.1637H78.7133V13.7818H81.1213C81.6361 13.7784 82.1491 13.8448 82.6465 13.9793C83.0912 14.0971 83.5038 14.3151 83.8532 14.617C84.2042 14.9253 84.4796 15.3117 84.6577 15.7458C84.861 16.2861 84.9596 16.8609 84.9483 17.4389C84.9659 18.0217 84.8512 18.6008 84.6131 19.132C84.4035 19.5717 84.0979 19.9577 83.7192 20.2607C83.3439 20.559 82.9152 20.7812 82.4565 20.9153C81.9886 21.0682 81.5012 21.1519 81.0095 21.1637ZM88.7697 30.6901H83.261V23.3083H88.6021V24.753H84.7974V26.0285H87.9931V27.462H84.7974V29.2454H88.7697V30.6901ZM94.7197 29.4147C94.6012 29.7066 94.4085 29.9616 94.161 30.154C93.8934 30.3788 93.5808 30.5424 93.2448 30.6337C92.8159 30.7553 92.3716 30.8124 91.9263 30.803C91.3358 30.8113 90.7506 30.69 90.2111 30.4475C89.7291 30.2376 89.3135 29.8979 89.0099 29.4655L90.0938 28.5173C90.3318 28.8025 90.6347 29.0252 90.9765 29.1664C91.3059 29.2958 91.6566 29.3609 92.0101 29.3582C92.35 29.3818 92.6902 29.3177 92.9989 29.172C93.1029 29.109 93.1876 29.0182 93.2438 28.9096C93.3 28.8011 93.3254 28.679 93.3174 28.5568C93.3197 28.4495 93.2967 28.3431 93.2503 28.2464C93.1944 28.1444 93.1112 28.0602 93.0101 28.0038C92.8512 27.9064 92.6802 27.8305 92.5017 27.778C92.2838 27.7103 91.9933 27.6369 91.6469 27.5579C91.3256 27.4855 91.0085 27.3951 90.6971 27.287C90.4311 27.1916 90.1806 27.0565 89.9541 26.8863C89.7467 26.7239 89.5817 26.5127 89.4736 26.2712C89.3489 25.9833 89.2897 25.6709 89.3004 25.3569C89.2939 25.0414 89.3649 24.7292 89.5071 24.4483C89.6419 24.1838 89.8327 23.9526 90.0658 23.771C90.3202 23.5762 90.6081 23.4308 90.915 23.3421C91.2546 23.2433 91.6064 23.1938 91.9598 23.1954C92.4877 23.1833 93.012 23.2873 93.4962 23.5001C93.9422 23.7092 94.3473 23.9979 94.6918 24.3523L93.6694 25.3964C93.4436 25.1657 93.1811 24.9749 92.8928 24.832C92.6012 24.7004 92.2847 24.6349 91.9654 24.6402C91.796 24.6355 91.6268 24.6545 91.4625 24.6966C91.3427 24.7269 91.2292 24.7785 91.1273 24.849C91.0499 24.9046 90.9867 24.9781 90.943 25.0634C90.9086 25.1396 90.8914 25.2224 90.8927 25.3061C90.8897 25.4099 90.9127 25.5128 90.9597 25.6052C91.0208 25.6959 91.1034 25.7696 91.2 25.8197C91.3481 25.8956 91.5034 25.9561 91.6637 26.0003C91.8574 26.0567 92.1032 26.1188 92.4011 26.1865C92.7028 26.2599 92.9989 26.3389 93.295 26.4348C93.5813 26.525 93.8525 26.6582 94.0995 26.8299C94.3291 27.0016 94.5196 27.221 94.6582 27.4733C94.8187 27.7785 94.8958 28.1213 94.8817 28.4665C94.8942 28.7891 94.8449 29.111 94.7365 29.4147H94.7197ZM95.1666 15.2378H92.9319V21.1637H91.3899V15.2378H89.1552V13.7818H95.1164L95.1666 15.2378ZM101.184 29.4147C101.061 29.7043 100.869 29.9584 100.625 30.154C100.357 30.3776 100.044 30.5411 99.7088 30.6337C99.2779 30.7549 98.8318 30.8119 98.3847 30.803C97.7942 30.8113 97.209 30.69 96.6695 30.4475C96.1885 30.2359 95.7734 29.8965 95.4683 29.4655L96.5522 28.5173C96.7902 28.8025 97.0931 29.0252 97.4349 29.1664C97.7643 29.2958 98.115 29.3609 98.4685 29.3582C98.8102 29.381 99.152 29.317 99.4629 29.172C99.5654 29.1078 99.6487 29.0166 99.7038 28.9082C99.7589 28.7999 99.7838 28.6784 99.7758 28.5568C99.7771 28.4502 99.7561 28.3444 99.7143 28.2464C99.6568 28.1456 99.574 28.0619 99.4741 28.0038C99.3146 27.9075 99.1438 27.8316 98.9657 27.778C98.7422 27.7103 98.4573 27.6369 98.1053 27.5579C97.7842 27.4848 97.4671 27.3944 97.1556 27.287C96.89 27.1904 96.6397 27.0554 96.4125 26.8863C96.2051 26.7239 96.0401 26.5127 95.932 26.2712C95.8073 25.9833 95.7481 25.6709 95.7588 25.3569C95.7542 25.041 95.8272 24.7288 95.9711 24.4483C96.1071 24.1846 96.2977 23.9537 96.5298 23.771C96.7862 23.5762 97.076 23.4308 97.3846 23.3421C98.2383 23.1021 99.147 23.1577 99.9658 23.5001C100.411 23.7105 100.816 23.9991 101.161 24.3523L100.111 25.3964C99.8853 25.1657 99.6228 24.9749 99.3344 24.832C99.0431 24.6998 98.7264 24.6343 98.407 24.6402C98.2376 24.6355 98.0684 24.6545 97.9042 24.6966C97.7852 24.7292 97.6721 24.7806 97.569 24.849C97.4925 24.9041 97.431 24.9779 97.3902 25.0634C97.3521 25.1385 97.333 25.2218 97.3343 25.3061C97.3306 25.4107 97.3558 25.5142 97.407 25.6052C97.4646 25.6989 97.5481 25.7734 97.6472 25.8197C97.7933 25.8957 97.9468 25.9563 98.1053 26.0003C98.3009 26.0567 98.5467 26.1188 98.8484 26.1865C99.1501 26.2542 99.4462 26.3389 99.7423 26.4348C100.029 26.525 100.3 26.6582 100.547 26.8299C100.775 27.0027 100.966 27.2219 101.105 27.4733C101.266 27.7785 101.343 28.1213 101.329 28.4665C101.339 28.7889 101.29 29.1104 101.184 29.4147ZM101.681 21.1637H96.1723V13.7818H101.519V15.2378H97.7142V16.5133H100.91V17.9468H97.7142V19.7302H101.681V21.1637ZM108.737 19.1432C108.527 19.6001 108.215 20.0018 107.826 20.3171C107.449 20.6144 107.018 20.8365 106.558 20.9718C106.089 21.1136 105.601 21.1858 105.111 21.1862H102.798V13.7818H105.206C105.721 13.7784 106.234 13.8448 106.731 13.9793C107.176 14.0971 107.589 14.3151 107.938 14.617C108.289 14.9253 108.565 15.3117 108.743 15.7458C108.948 16.2855 109.047 16.8607 109.033 17.4389C109.06 18.0237 108.953 18.6068 108.72 19.1432H108.737Z" fill="#545253"></path>
      <path id="Vector_38" d="M69.4732 16.152C69.4852 16.0178 69.4651 15.8826 69.4145 15.7578C69.3639 15.6331 69.2844 15.5225 69.1827 15.4353C68.9433 15.2755 68.6591 15.1983 68.3726 15.2152H66.3613V17.1114H68.3726C69.1045 17.1114 69.4732 16.7954 69.4732 16.152Z" fill="#545253"></path>
      <path id="Vector_39" d="M105.173 15.2383H104.357V19.7532H105.117C105.474 19.7602 105.829 19.7048 106.168 19.5895C106.442 19.4918 106.692 19.3337 106.899 19.1267C107.095 18.9266 107.243 18.6831 107.33 18.4156C107.429 18.1194 107.478 17.8084 107.475 17.4957C107.515 16.8793 107.314 16.2716 106.916 15.8026C106.677 15.5967 106.4 15.4408 106.101 15.3439C105.801 15.2471 105.486 15.2111 105.173 15.2383Z" fill="#545253"></path>
      <path id="Vector_40" d="M46.4552 16.1462C46.3881 15.9374 46.3323 15.768 46.2987 15.627C46.2596 15.768 46.2093 15.9374 46.1367 16.1462C46.0641 16.355 45.9915 16.5582 45.9132 16.7783L45.416 18.1158H47.1759L46.6842 16.7783C46.6004 16.5582 46.5278 16.3663 46.4552 16.1462Z" fill="#545253"></path>
    </g>
  </symbol>
</svg>